<mxfile host="app.diagrams.net" modified="2023-05-12T20:49:27.598Z" agent="Mozilla/5.0 (Macintosh; Intel Mac OS X 10_15_7) AppleWebKit/537.36 (KHTML, like Gecko) Chrome/112.0.0.0 Safari/537.36" etag="ju2CwgKqBtGAOGqa4tal" version="21.2.9" type="device">
  <diagram name="PÃ¡gina-1" id="aU-SQqhUDh7mTu2FFDyx">
    <mxGraphModel dx="1753" dy="2013" grid="1" gridSize="10" guides="1" tooltips="1" connect="1" arrows="1" fold="1" page="1" pageScale="1" pageWidth="827" pageHeight="1169" math="0" shadow="0">
      <root>
        <mxCell id="0" />
        <mxCell id="1" parent="0" />
        <mxCell id="G5W-g5Hc8PgUAYtpd-jO-1" value="main" style="shape=folder;tabWidth=80;tabHeight=20;tabPosition=left;strokeWidth=2;html=1;whiteSpace=wrap;align=center;" vertex="1" parent="1">
          <mxGeometry x="333" y="630" width="160" height="90" as="geometry" />
        </mxCell>
        <mxCell id="G5W-g5Hc8PgUAYtpd-jO-2" value="java" style="shape=folder;tabWidth=80;tabHeight=20;tabPosition=left;strokeWidth=2;html=1;whiteSpace=wrap;align=center;" vertex="1" parent="1">
          <mxGeometry x="70" y="630" width="160" height="90" as="geometry" />
        </mxCell>
        <mxCell id="G5W-g5Hc8PgUAYtpd-jO-3" value="" style="edgeStyle=none;html=1;endSize=12;endArrow=block;endFill=0;dashed=1;rounded=0;exitX=0;exitY=0;exitDx=160;exitDy=55;exitPerimeter=0;entryX=0;entryY=0;entryDx=0;entryDy=55;entryPerimeter=0;" edge="1" parent="1" source="G5W-g5Hc8PgUAYtpd-jO-2" target="G5W-g5Hc8PgUAYtpd-jO-1">
          <mxGeometry width="160" relative="1" as="geometry">
            <mxPoint x="230" y="681" as="sourcePoint" />
            <mxPoint x="390" y="681" as="targetPoint" />
          </mxGeometry>
        </mxCell>
        <mxCell id="G5W-g5Hc8PgUAYtpd-jO-4" value="utils" style="shape=folder;tabWidth=80;tabHeight=20;tabPosition=left;strokeWidth=2;html=1;whiteSpace=wrap;align=center;" vertex="1" parent="1">
          <mxGeometry x="300" y="330" width="160" height="90" as="geometry" />
        </mxCell>
        <mxCell id="G5W-g5Hc8PgUAYtpd-jO-6" value="" style="edgeStyle=orthogonalEdgeStyle;html=1;endSize=12;endArrow=block;endFill=0;dashed=1;rounded=0;exitX=0.5;exitY=1;exitDx=0;exitDy=0;exitPerimeter=0;entryX=0;entryY=0;entryDx=80;entryDy=0;entryPerimeter=0;" edge="1" parent="1" source="G5W-g5Hc8PgUAYtpd-jO-4" target="G5W-g5Hc8PgUAYtpd-jO-2">
          <mxGeometry width="160" relative="1" as="geometry">
            <mxPoint x="390" y="670" as="sourcePoint" />
            <mxPoint x="380.0000000000002" y="529" as="targetPoint" />
          </mxGeometry>
        </mxCell>
        <mxCell id="G5W-g5Hc8PgUAYtpd-jO-7" value="controller" style="shape=folder;tabWidth=80;tabHeight=20;tabPosition=left;strokeWidth=2;html=1;whiteSpace=wrap;align=center;" vertex="1" parent="1">
          <mxGeometry x="-160" y="910" width="160" height="90" as="geometry" />
        </mxCell>
        <mxCell id="G5W-g5Hc8PgUAYtpd-jO-8" value="reportes" style="shape=folder;tabWidth=80;tabHeight=20;tabPosition=left;strokeWidth=2;html=1;whiteSpace=wrap;align=center;" vertex="1" parent="1">
          <mxGeometry x="70" y="910" width="160" height="90" as="geometry" />
        </mxCell>
        <mxCell id="G5W-g5Hc8PgUAYtpd-jO-9" value="service" style="shape=folder;tabWidth=80;tabHeight=20;tabPosition=left;strokeWidth=2;html=1;whiteSpace=wrap;align=center;" vertex="1" parent="1">
          <mxGeometry x="280" y="910" width="160" height="90" as="geometry" />
        </mxCell>
        <mxCell id="G5W-g5Hc8PgUAYtpd-jO-11" value="model" style="shape=folder;tabWidth=80;tabHeight=20;tabPosition=left;strokeWidth=2;html=1;whiteSpace=wrap;align=center;" vertex="1" parent="1">
          <mxGeometry x="70" y="332.67" width="160" height="90" as="geometry" />
        </mxCell>
        <mxCell id="G5W-g5Hc8PgUAYtpd-jO-12" value="data" style="shape=folder;tabWidth=80;tabHeight=20;tabPosition=left;strokeWidth=2;html=1;whiteSpace=wrap;align=center;" vertex="1" parent="1">
          <mxGeometry x="-180" y="332.67" width="160" height="90" as="geometry" />
        </mxCell>
        <mxCell id="G5W-g5Hc8PgUAYtpd-jO-13" value="" style="shape=stencil(fZbdcgIhDIWfZm8zQAg/17Z9j85U606tdqz9e/tmZ0c0uJ47xP0I5JwEBl59bp8/1kNwn6fj4W39M76ctgM/DCGM++36OJ50NPDjwKvN4bh+PR6+9i/z74/n6ctp9H74nlb4nbmSKZeJCu5vngmZ6jzzNAO7cX8FVKEsBuBKrgKg9oAE8gkCbLeUhEoEQKSUDZDLeWYRKIl8MEDRmHwfyBrBG6Amyu4+kDxxMoB3jhwgYu7TVAsVkFcWCs4CTBEoF4RctKeOxHIf8IXYpikHikAIf+MNUW94AGSSaoAoFIE3AlOyeWU+p2E5S9yfQZcQILVuQOwZdJNoS9Ls3wA5u2XZTIHECqeJ9kDpSaauRiNVcAY1QhdBzeLBli5WazpkSsBLV25uRaqWRyFawTQzRRIQYirJzq5atkBqLfouwqUxLBepthWb10vrWZY6UOAeyKCCtDV625mm9gmUC4Wc3VLJMMIE1BsA2FW9JraVlQB7n3c9oMKhCLEvIM1zBPZ25/umNQ1tVEC2G+fFCC8g398O2hNQuQlVu752DBfA+q0ptnqO5JFmeuIuo9DY7KjY71UxdJV4EntifPWorW++R/dC4t7V3DlIB5cHx2bc7eb3yvX//QNFp+bHDT/+Aw==);lineShape=1;" vertex="1" parent="1">
          <mxGeometry x="180.3899673687299" y="375.7294270487662" width="3.8937831434293457" height="3.88769684696437" as="geometry" />
        </mxCell>
        <mxCell id="G5W-g5Hc8PgUAYtpd-jO-15" value="" style="edgeStyle=orthogonalEdgeStyle;html=1;endSize=12;endArrow=block;endFill=0;dashed=1;rounded=0;exitX=0;exitY=0;exitDx=80;exitDy=0;exitPerimeter=0;" edge="1" parent="1" source="G5W-g5Hc8PgUAYtpd-jO-8">
          <mxGeometry width="160" relative="1" as="geometry">
            <mxPoint x="200" y="640" as="sourcePoint" />
            <mxPoint x="150" y="720" as="targetPoint" />
          </mxGeometry>
        </mxCell>
        <mxCell id="G5W-g5Hc8PgUAYtpd-jO-16" value="" style="edgeStyle=orthogonalEdgeStyle;html=1;endSize=12;endArrow=block;endFill=0;dashed=1;rounded=0;exitX=0;exitY=0;exitDx=80;exitDy=0;exitPerimeter=0;entryX=0.5;entryY=1;entryDx=0;entryDy=0;entryPerimeter=0;" edge="1" parent="1" source="G5W-g5Hc8PgUAYtpd-jO-9" target="G5W-g5Hc8PgUAYtpd-jO-2">
          <mxGeometry width="160" relative="1" as="geometry">
            <mxPoint x="160" y="740" as="sourcePoint" />
            <mxPoint x="150" y="630" as="targetPoint" />
            <Array as="points">
              <mxPoint x="360" y="850" />
              <mxPoint x="150" y="850" />
            </Array>
          </mxGeometry>
        </mxCell>
        <mxCell id="G5W-g5Hc8PgUAYtpd-jO-17" value="" style="edgeStyle=orthogonalEdgeStyle;html=1;endSize=12;endArrow=block;endFill=0;dashed=1;rounded=0;exitX=0;exitY=0;exitDx=80;exitDy=0;exitPerimeter=0;entryX=0.5;entryY=1;entryDx=0;entryDy=0;entryPerimeter=0;" edge="1" parent="1" source="G5W-g5Hc8PgUAYtpd-jO-7" target="G5W-g5Hc8PgUAYtpd-jO-2">
          <mxGeometry width="160" relative="1" as="geometry">
            <mxPoint x="60" y="741" as="sourcePoint" />
            <mxPoint x="-70" y="640" as="targetPoint" />
            <Array as="points">
              <mxPoint x="-80" y="850" />
              <mxPoint x="150" y="850" />
            </Array>
          </mxGeometry>
        </mxCell>
        <mxCell id="G5W-g5Hc8PgUAYtpd-jO-19" value="" style="edgeStyle=orthogonalEdgeStyle;html=1;endSize=12;endArrow=block;endFill=0;dashed=1;rounded=0;exitX=0.5;exitY=1;exitDx=0;exitDy=0;exitPerimeter=0;entryX=0;entryY=0;entryDx=80;entryDy=0;entryPerimeter=0;" edge="1" parent="1" source="G5W-g5Hc8PgUAYtpd-jO-11" target="G5W-g5Hc8PgUAYtpd-jO-2">
          <mxGeometry width="160" relative="1" as="geometry">
            <mxPoint x="240" y="551" as="sourcePoint" />
            <mxPoint x="150" y="530" as="targetPoint" />
          </mxGeometry>
        </mxCell>
        <mxCell id="G5W-g5Hc8PgUAYtpd-jO-21" value="" style="edgeStyle=orthogonalEdgeStyle;html=1;endSize=12;endArrow=block;endFill=0;dashed=1;rounded=0;exitX=0.5;exitY=1;exitDx=0;exitDy=0;exitPerimeter=0;entryX=0;entryY=0;entryDx=80;entryDy=0;entryPerimeter=0;" edge="1" parent="1" source="G5W-g5Hc8PgUAYtpd-jO-12" target="G5W-g5Hc8PgUAYtpd-jO-2">
          <mxGeometry width="160" relative="1" as="geometry">
            <mxPoint x="-40" y="605" as="sourcePoint" />
            <mxPoint x="380" y="530" as="targetPoint" />
          </mxGeometry>
        </mxCell>
        <mxCell id="G5W-g5Hc8PgUAYtpd-jO-24" value="tiene Acceso" style="edgeLabel;html=1;align=center;verticalAlign=middle;resizable=0;points=[];" vertex="1" connectable="0" parent="G5W-g5Hc8PgUAYtpd-jO-21">
          <mxGeometry x="0.0792" y="1" relative="1" as="geometry">
            <mxPoint as="offset" />
          </mxGeometry>
        </mxCell>
        <mxCell id="G5W-g5Hc8PgUAYtpd-jO-81" value="webapp" style="shape=folder;tabWidth=80;tabHeight=20;tabPosition=left;strokeWidth=2;html=1;whiteSpace=wrap;align=center;" vertex="1" parent="1">
          <mxGeometry x="334" y="750" width="160" height="90" as="geometry" />
        </mxCell>
        <mxCell id="G5W-g5Hc8PgUAYtpd-jO-82" value="" style="edgeStyle=none;html=1;endSize=12;endArrow=block;endFill=0;dashed=1;rounded=0;entryX=0.5;entryY=1;entryDx=0;entryDy=0;entryPerimeter=0;exitX=0;exitY=0;exitDx=80;exitDy=0;exitPerimeter=0;" edge="1" parent="1" source="G5W-g5Hc8PgUAYtpd-jO-81" target="G5W-g5Hc8PgUAYtpd-jO-1">
          <mxGeometry width="160" relative="1" as="geometry">
            <mxPoint x="280" y="791" as="sourcePoint" />
            <mxPoint x="440" y="791" as="targetPoint" />
          </mxGeometry>
        </mxCell>
        <mxCell id="G5W-g5Hc8PgUAYtpd-jO-83" value="Admin" style="shape=folder;tabWidth=80;tabHeight=20;tabPosition=left;strokeWidth=2;html=1;whiteSpace=wrap;align=center;" vertex="1" parent="1">
          <mxGeometry x="-100" y="190.00000000000003" width="160" height="90" as="geometry" />
        </mxCell>
        <mxCell id="G5W-g5Hc8PgUAYtpd-jO-84" value="Cargar Datos" style="shape=folder;tabWidth=80;tabHeight=20;tabPosition=left;strokeWidth=2;html=1;whiteSpace=wrap;align=center;" vertex="1" parent="1">
          <mxGeometry x="-100" y="-139.99999999999997" width="160" height="90" as="geometry" />
        </mxCell>
        <mxCell id="G5W-g5Hc8PgUAYtpd-jO-85" value="Laboratorio" style="shape=folder;tabWidth=80;tabHeight=20;tabPosition=left;strokeWidth=2;html=1;whiteSpace=wrap;align=center;" vertex="1" parent="1">
          <mxGeometry x="-100" y="80.00000000000003" width="160" height="90" as="geometry" />
        </mxCell>
        <mxCell id="G5W-g5Hc8PgUAYtpd-jO-86" value="Medico" style="shape=folder;tabWidth=80;tabHeight=20;tabPosition=left;strokeWidth=2;html=1;whiteSpace=wrap;align=center;" vertex="1" parent="1">
          <mxGeometry x="-100" y="-29.99999999999997" width="160" height="90" as="geometry" />
        </mxCell>
        <mxCell id="G5W-g5Hc8PgUAYtpd-jO-87" value="Paciente" style="shape=folder;tabWidth=80;tabHeight=20;tabPosition=left;strokeWidth=2;html=1;whiteSpace=wrap;align=center;" vertex="1" parent="1">
          <mxGeometry x="-100" y="-360" width="160" height="90" as="geometry" />
        </mxCell>
        <mxCell id="G5W-g5Hc8PgUAYtpd-jO-88" value="Usuario" style="shape=folder;tabWidth=80;tabHeight=20;tabPosition=left;strokeWidth=2;html=1;whiteSpace=wrap;align=center;" vertex="1" parent="1">
          <mxGeometry x="-100" y="-249.99999999999997" width="160" height="90" as="geometry" />
        </mxCell>
        <mxCell id="G5W-g5Hc8PgUAYtpd-jO-89" value="Conexion" style="shape=folder;tabWidth=80;tabHeight=20;tabPosition=left;strokeWidth=2;html=1;whiteSpace=wrap;align=center;" vertex="1" parent="1">
          <mxGeometry x="-80" y="1060" width="160" height="90" as="geometry" />
        </mxCell>
        <mxCell id="G5W-g5Hc8PgUAYtpd-jO-90" value="Generar reportes" style="shape=folder;tabWidth=80;tabHeight=20;tabPosition=left;strokeWidth=2;html=1;whiteSpace=wrap;align=center;" vertex="1" parent="1">
          <mxGeometry x="-80" y="1169" width="160" height="90" as="geometry" />
        </mxCell>
        <mxCell id="G5W-g5Hc8PgUAYtpd-jO-91" value="Rrportes" style="shape=folder;tabWidth=80;tabHeight=20;tabPosition=left;strokeWidth=2;html=1;whiteSpace=wrap;align=center;" vertex="1" parent="1">
          <mxGeometry x="570" y="930" width="160" height="90" as="geometry" />
        </mxCell>
        <mxCell id="G5W-g5Hc8PgUAYtpd-jO-92" value="Admin" style="shape=folder;tabWidth=80;tabHeight=20;tabPosition=left;strokeWidth=2;html=1;whiteSpace=wrap;align=center;" vertex="1" parent="1">
          <mxGeometry x="690" y="1070" width="160" height="90" as="geometry" />
        </mxCell>
        <mxCell id="G5W-g5Hc8PgUAYtpd-jO-93" value="Laboratorio" style="shape=folder;tabWidth=80;tabHeight=20;tabPosition=left;strokeWidth=2;html=1;whiteSpace=wrap;align=center;" vertex="1" parent="1">
          <mxGeometry x="690" y="1180" width="160" height="90" as="geometry" />
        </mxCell>
        <mxCell id="G5W-g5Hc8PgUAYtpd-jO-94" value="Medico" style="shape=folder;tabWidth=80;tabHeight=20;tabPosition=left;strokeWidth=2;html=1;whiteSpace=wrap;align=center;" vertex="1" parent="1">
          <mxGeometry x="690" y="1290" width="160" height="90" as="geometry" />
        </mxCell>
        <mxCell id="G5W-g5Hc8PgUAYtpd-jO-95" value="Paciente" style="shape=folder;tabWidth=80;tabHeight=20;tabPosition=left;strokeWidth=2;html=1;whiteSpace=wrap;align=center;" vertex="1" parent="1">
          <mxGeometry x="690" y="1400" width="160" height="90" as="geometry" />
        </mxCell>
        <mxCell id="G5W-g5Hc8PgUAYtpd-jO-96" value="" style="edgeStyle=orthogonalEdgeStyle;html=1;endSize=12;endArrow=block;endFill=0;dashed=1;rounded=0;exitX=0;exitY=0;exitDx=160;exitDy=55;exitPerimeter=0;entryX=0;entryY=0;entryDx=0;entryDy=55;entryPerimeter=0;" edge="1" parent="1" source="G5W-g5Hc8PgUAYtpd-jO-81" target="G5W-g5Hc8PgUAYtpd-jO-109">
          <mxGeometry width="160" relative="1" as="geometry">
            <mxPoint x="400" y="1150" as="sourcePoint" />
            <mxPoint x="560" y="1150" as="targetPoint" />
          </mxGeometry>
        </mxCell>
        <mxCell id="G5W-g5Hc8PgUAYtpd-jO-97" value="" style="edgeStyle=orthogonalEdgeStyle;html=1;endSize=12;endArrow=block;endFill=0;dashed=1;rounded=0;exitX=0.5;exitY=1;exitDx=0;exitDy=0;exitPerimeter=0;entryX=0;entryY=0;entryDx=0;entryDy=55;entryPerimeter=0;" edge="1" parent="1" source="G5W-g5Hc8PgUAYtpd-jO-91" target="G5W-g5Hc8PgUAYtpd-jO-92">
          <mxGeometry width="160" relative="1" as="geometry">
            <mxPoint x="370" y="1200" as="sourcePoint" />
            <mxPoint x="530" y="1200" as="targetPoint" />
          </mxGeometry>
        </mxCell>
        <mxCell id="G5W-g5Hc8PgUAYtpd-jO-98" value="" style="edgeStyle=orthogonalEdgeStyle;html=1;endSize=12;endArrow=block;endFill=0;dashed=1;rounded=0;exitX=0.5;exitY=1;exitDx=0;exitDy=0;exitPerimeter=0;entryX=0;entryY=0;entryDx=0;entryDy=55;entryPerimeter=0;" edge="1" parent="1" source="G5W-g5Hc8PgUAYtpd-jO-91" target="G5W-g5Hc8PgUAYtpd-jO-93">
          <mxGeometry width="160" relative="1" as="geometry">
            <mxPoint x="600" y="1169" as="sourcePoint" />
            <mxPoint x="640" y="1314" as="targetPoint" />
          </mxGeometry>
        </mxCell>
        <mxCell id="G5W-g5Hc8PgUAYtpd-jO-99" value="" style="edgeStyle=orthogonalEdgeStyle;html=1;endSize=12;endArrow=block;endFill=0;dashed=1;rounded=0;exitX=0.5;exitY=1;exitDx=0;exitDy=0;exitPerimeter=0;entryX=0;entryY=0;entryDx=0;entryDy=55;entryPerimeter=0;" edge="1" parent="1" source="G5W-g5Hc8PgUAYtpd-jO-91" target="G5W-g5Hc8PgUAYtpd-jO-94">
          <mxGeometry width="160" relative="1" as="geometry">
            <mxPoint x="660" y="990" as="sourcePoint" />
            <mxPoint x="700" y="1245" as="targetPoint" />
          </mxGeometry>
        </mxCell>
        <mxCell id="G5W-g5Hc8PgUAYtpd-jO-100" value="" style="edgeStyle=orthogonalEdgeStyle;html=1;endSize=12;endArrow=block;endFill=0;dashed=1;rounded=0;exitX=0.5;exitY=1;exitDx=0;exitDy=0;exitPerimeter=0;entryX=0;entryY=0;entryDx=0;entryDy=55;entryPerimeter=0;" edge="1" parent="1" source="G5W-g5Hc8PgUAYtpd-jO-91" target="G5W-g5Hc8PgUAYtpd-jO-95">
          <mxGeometry width="160" relative="1" as="geometry">
            <mxPoint x="670" y="1000" as="sourcePoint" />
            <mxPoint x="710" y="1255" as="targetPoint" />
          </mxGeometry>
        </mxCell>
        <mxCell id="G5W-g5Hc8PgUAYtpd-jO-101" value="" style="edgeStyle=orthogonalEdgeStyle;html=1;endSize=12;endArrow=block;endFill=0;dashed=1;rounded=0;exitX=0;exitY=0;exitDx=160;exitDy=55;exitPerimeter=0;entryX=0;entryY=0;entryDx=80;entryDy=0;entryPerimeter=0;" edge="1" parent="1" source="G5W-g5Hc8PgUAYtpd-jO-83" target="G5W-g5Hc8PgUAYtpd-jO-11">
          <mxGeometry width="160" relative="1" as="geometry">
            <mxPoint x="90" y="250" as="sourcePoint" />
            <mxPoint x="250" y="250" as="targetPoint" />
          </mxGeometry>
        </mxCell>
        <mxCell id="G5W-g5Hc8PgUAYtpd-jO-102" value="" style="edgeStyle=orthogonalEdgeStyle;html=1;endSize=12;endArrow=block;endFill=0;dashed=1;rounded=0;exitX=0;exitY=0;exitDx=160;exitDy=55;exitPerimeter=0;entryX=0;entryY=0;entryDx=80;entryDy=0;entryPerimeter=0;" edge="1" parent="1" source="G5W-g5Hc8PgUAYtpd-jO-85" target="G5W-g5Hc8PgUAYtpd-jO-11">
          <mxGeometry width="160" relative="1" as="geometry">
            <mxPoint x="70" y="255" as="sourcePoint" />
            <mxPoint x="160" y="343" as="targetPoint" />
          </mxGeometry>
        </mxCell>
        <mxCell id="G5W-g5Hc8PgUAYtpd-jO-103" value="" style="edgeStyle=orthogonalEdgeStyle;html=1;endSize=12;endArrow=block;endFill=0;dashed=1;rounded=0;exitX=0;exitY=0;exitDx=160;exitDy=55;exitPerimeter=0;entryX=0;entryY=0;entryDx=80;entryDy=0;entryPerimeter=0;" edge="1" parent="1" source="G5W-g5Hc8PgUAYtpd-jO-86" target="G5W-g5Hc8PgUAYtpd-jO-11">
          <mxGeometry width="160" relative="1" as="geometry">
            <mxPoint x="70" y="145" as="sourcePoint" />
            <mxPoint x="160" y="343" as="targetPoint" />
          </mxGeometry>
        </mxCell>
        <mxCell id="G5W-g5Hc8PgUAYtpd-jO-104" value="" style="edgeStyle=orthogonalEdgeStyle;html=1;endSize=12;endArrow=block;endFill=0;dashed=1;rounded=0;exitX=0;exitY=0;exitDx=160;exitDy=55;exitPerimeter=0;entryX=0;entryY=0;entryDx=80;entryDy=0;entryPerimeter=0;" edge="1" parent="1" source="G5W-g5Hc8PgUAYtpd-jO-84" target="G5W-g5Hc8PgUAYtpd-jO-11">
          <mxGeometry width="160" relative="1" as="geometry">
            <mxPoint x="80" y="155" as="sourcePoint" />
            <mxPoint x="170" y="353" as="targetPoint" />
          </mxGeometry>
        </mxCell>
        <mxCell id="G5W-g5Hc8PgUAYtpd-jO-105" value="" style="edgeStyle=orthogonalEdgeStyle;html=1;endSize=12;endArrow=block;endFill=0;dashed=1;rounded=0;exitX=0;exitY=0;exitDx=160;exitDy=55;exitPerimeter=0;entryX=0;entryY=0;entryDx=80;entryDy=0;entryPerimeter=0;" edge="1" parent="1" source="G5W-g5Hc8PgUAYtpd-jO-88" target="G5W-g5Hc8PgUAYtpd-jO-11">
          <mxGeometry width="160" relative="1" as="geometry">
            <mxPoint x="90" y="165" as="sourcePoint" />
            <mxPoint x="180" y="363" as="targetPoint" />
          </mxGeometry>
        </mxCell>
        <mxCell id="G5W-g5Hc8PgUAYtpd-jO-106" value="" style="edgeStyle=orthogonalEdgeStyle;html=1;endSize=12;endArrow=block;endFill=0;dashed=1;rounded=0;exitX=0;exitY=0;exitDx=160;exitDy=55;exitPerimeter=0;entryX=0;entryY=0;entryDx=80;entryDy=0;entryPerimeter=0;" edge="1" parent="1" source="G5W-g5Hc8PgUAYtpd-jO-87" target="G5W-g5Hc8PgUAYtpd-jO-11">
          <mxGeometry width="160" relative="1" as="geometry">
            <mxPoint x="100" y="175" as="sourcePoint" />
            <mxPoint x="190" y="373" as="targetPoint" />
          </mxGeometry>
        </mxCell>
        <mxCell id="G5W-g5Hc8PgUAYtpd-jO-107" value="" style="edgeStyle=orthogonalEdgeStyle;html=1;endSize=12;endArrow=block;endFill=0;dashed=1;rounded=0;exitX=0;exitY=0;exitDx=160;exitDy=55;exitPerimeter=0;entryX=0.5;entryY=1;entryDx=0;entryDy=0;entryPerimeter=0;" edge="1" parent="1" source="G5W-g5Hc8PgUAYtpd-jO-89" target="G5W-g5Hc8PgUAYtpd-jO-8">
          <mxGeometry width="160" relative="1" as="geometry">
            <mxPoint x="190" y="1260" as="sourcePoint" />
            <mxPoint x="190" y="1040" as="targetPoint" />
          </mxGeometry>
        </mxCell>
        <mxCell id="G5W-g5Hc8PgUAYtpd-jO-108" value="" style="edgeStyle=orthogonalEdgeStyle;html=1;endSize=12;endArrow=block;endFill=0;dashed=1;rounded=0;exitX=0;exitY=0;exitDx=160;exitDy=55;exitPerimeter=0;" edge="1" parent="1" source="G5W-g5Hc8PgUAYtpd-jO-90">
          <mxGeometry width="160" relative="1" as="geometry">
            <mxPoint x="100" y="1215" as="sourcePoint" />
            <mxPoint x="150" y="1000" as="targetPoint" />
          </mxGeometry>
        </mxCell>
        <mxCell id="G5W-g5Hc8PgUAYtpd-jO-109" value="WEB-INF" style="shape=folder;tabWidth=80;tabHeight=20;tabPosition=left;strokeWidth=2;html=1;whiteSpace=wrap;align=center;" vertex="1" parent="1">
          <mxGeometry x="570" y="750" width="160" height="90" as="geometry" />
        </mxCell>
        <mxCell id="G5W-g5Hc8PgUAYtpd-jO-110" value="" style="edgeStyle=none;html=1;endSize=12;endArrow=block;endFill=0;dashed=1;rounded=0;exitX=0.5;exitY=1;exitDx=0;exitDy=0;exitPerimeter=0;entryX=0;entryY=0;entryDx=80;entryDy=0;entryPerimeter=0;" edge="1" parent="1" source="G5W-g5Hc8PgUAYtpd-jO-109" target="G5W-g5Hc8PgUAYtpd-jO-91">
          <mxGeometry width="160" relative="1" as="geometry">
            <mxPoint x="760" y="920" as="sourcePoint" />
            <mxPoint x="920" y="920" as="targetPoint" />
          </mxGeometry>
        </mxCell>
      </root>
    </mxGraphModel>
  </diagram>
</mxfile>
